<?xml version="1.0" standalone="no"?>
<!DOCTYPE svg PUBLIC "-//W3C//DTD SVG 20010904//EN"
 "http://www.w3.org/TR/2001/REC-SVG-20010904/DTD/svg10.dtd">
<svg version="1.0" xmlns="http://www.w3.org/2000/svg"
 width="150.000000pt" height="100.000000pt" viewBox="0 0 150.000000 100.000000"
 preserveAspectRatio="xMidYMid meet">
<metadata>
Created by potrace 1.16, written by Peter Selinger 2001-2019
</metadata>
<g transform="translate(0.000000,100.000000) scale(0.007324,-0.006510)"
fill="#000000" stroke="none">
<path d="M10120 12663 c-347 -7 -745 -62 -1093 -149 -756 -189 -1441 -544
-2052 -1062 -129 -109 -446 -428 -554 -557 -597 -715 -977 -1549 -1110 -2435
-65 -435 -71 -940 -15 -1375 57 -443 183 -905 356 -1304 275 -633 675 -1201
1168 -1659 542 -503 1152 -866 1845 -1097 866 -289 1817 -334 2720 -129 912
207 1763 678 2425 1344 811 814 1295 1831 1420 2980 30 268 27 747 -5 1035
-107 970 -489 1861 -1126 2625 -129 156 -447 474 -599 601 -963 804 -2121
1208 -3380 1182z m465 -153 c1213 -89 2305 -588 3139 -1434 1044 -1058 1533
-2503 1346 -3973 -91 -707 -343 -1391 -736 -1991 -199 -303 -356 -495 -628
-768 -262 -262 -430 -402 -717 -597 -1074 -731 -2412 -996 -3709 -737 -1082
217 -2068 804 -2774 1654 -854 1026 -1235 2341 -1066 3671 96 753 387 1498
834 2132 530 753 1291 1355 2151 1701 465 186 968 302 1480 341 161 12 519 12
680 1z"/>
<path d="M9895 12350 c-637 -55 -1170 -200 -1720 -470 -2046 -1001 -3063
-3298 -2425 -5475 212 -723 614 -1396 1160 -1946 709 -712 1624 -1180 2605
-1330 1325 -203 2644 143 3681 967 161 128 247 206 404 363 372 375 642 752
875 1226 246 500 390 998 452 1565 24 224 24 708 0 933 -119 1103 -598 2087
-1389 2852 -170 165 -266 247 -443 380 -685 514 -1451 818 -2325 921 -157 18
-719 27 -875 14z m694 -350 c125 -21 186 -79 210 -200 19 -96 -6 -181 -78
-262 l-37 -41 71 -71 c62 -61 74 -78 85 -125 27 -116 -2 -233 -79 -314 -90
-96 -152 -107 -603 -107 l-356 0 -6 73 c-7 79 -46 960 -46 1020 l0 37 388 0
c218 0 415 -5 451 -10z m814 -136 c97 -32 177 -63 177 -69 0 -6 -56 -162 -125
-346 -85 -226 -125 -347 -125 -374 1 -61 38 -97 133 -129 64 -21 117 -8 151
37 13 18 84 176 156 352 73 176 136 328 141 337 8 15 29 8 181 -58 95 -42 177
-80 183 -85 8 -8 -96 -281 -233 -609 -69 -167 -141 -253 -249 -302 -71 -33
-216 -30 -336 6 -277 83 -441 185 -504 314 -24 50 -27 68 -27 147 1 98 2 101
102 375 33 91 81 224 107 295 26 72 52 140 56 153 5 13 15 22 22 19 6 -3 92
-31 190 -63z m-2260 -19 c169 -36 279 -148 306 -311 12 -79 -2 -153 -44 -230
l-33 -61 140 -129 c77 -71 167 -154 200 -184 l60 -55 -196 -43 -195 -43 -148
119 c-81 65 -153 121 -159 125 -14 8 -130 -38 -127 -51 1 -5 32 -74 68 -152
36 -79 64 -144 63 -146 -8 -7 -359 -166 -362 -163 -1 2 -28 65 -58 139 -31 74
-126 302 -212 506 -85 203 -157 381 -158 394 -3 22 14 31 242 127 342 144 361
152 422 162 79 13 116 12 191 -4z m3733 -710 c207 -69 372 -235 445 -447 13
-37 21 -69 19 -71 -18 -14 -220 -127 -228 -127 -5 0 -12 16 -15 35 -10 60 -67
162 -117 209 -75 70 -122 91 -210 91 -91 -1 -152 -28 -228 -104 -69 -69 -97
-130 -97 -211 0 -156 130 -289 314 -321 l60 -11 -51 -81 c-28 -45 -58 -92 -66
-104 -18 -28 -41 -29 -128 -2 -210 64 -389 229 -444 407 -75 243 7 504 203
649 83 61 139 85 272 117 50 12 195 -3 271 -29z m-4715 -299 c283 -175 518
-322 522 -326 10 -8 -278 -200 -301 -200 -8 0 -62 25 -119 55 -64 34 -109 53
-116 48 -30 -18 -277 -237 -277 -245 0 -5 20 -57 45 -116 25 -58 45 -111 45
-117 0 -11 -245 -288 -260 -293 -4 -2 -119 257 -254 574 -238 555 -247 578
-229 594 49 48 418 350 423 348 4 -2 238 -146 521 -322z m2463 -260 c848 -117
1573 -569 2044 -1276 89 -133 221 -388 279 -540 83 -214 149 -484 175 -715 16
-144 15 -481 -1 -620 -63 -537 -278 -1056 -607 -1465 -88 -110 -265 -292 -379
-390 -745 -640 -1774 -857 -2727 -575 -677 201 -1278 663 -1643 1263 -397 654
-514 1439 -325 2182 126 496 382 944 749 1310 487 486 1105 774 1801 840 131
12 502 4 634 -14z m3078 -234 l106 -138 -170 -124 -169 -125 38 -6 c21 -4 138
-17 261 -30 l222 -23 39 -70 c21 -39 58 -107 81 -151 24 -44 47 -86 53 -93 5
-7 7 -15 3 -19 -5 -6 -432 20 -551 33 l-50 6 -174 -309 c-95 -169 -177 -312
-181 -316 -8 -9 -63 83 -149 249 l-52 100 117 229 c65 125 111 224 103 220 -8
-5 -87 -62 -176 -127 -89 -65 -165 -118 -170 -118 -10 0 -209 259 -219 283 -3
8 28 37 78 73 155 114 592 436 712 525 84 62 123 86 131 79 7 -5 59 -72 117
-148z m-6730 12 c62 -36 116 -68 119 -72 4 -4 -33 -70 -81 -147 -68 -107 -86
-143 -77 -151 7 -7 154 -104 327 -215 173 -112 326 -212 339 -221 l23 -16 -88
-144 c-48 -79 -90 -147 -94 -151 -4 -4 -162 88 -351 204 -189 117 -351 214
-360 216 -11 3 -38 -33 -95 -126 -43 -72 -84 -131 -89 -131 -6 0 -61 34 -123
76 l-113 75 19 32 c50 83 505 814 514 825 6 6 12 12 14 12 1 0 54 -30 116 -66z
m-622 -1108 c47 -33 87 -61 88 -62 2 -1 -24 -31 -57 -65 -36 -37 -75 -90 -94
-128 -28 -58 -32 -75 -32 -149 0 -79 1 -85 28 -108 21 -18 35 -22 55 -18 43
11 80 42 108 92 84 149 113 192 158 241 61 63 125 98 198 107 61 7 155 -9 208
-36 58 -30 120 -97 153 -168 31 -66 32 -69 31 -212 0 -129 -3 -154 -27 -225
-14 -44 -49 -116 -76 -160 -48 -79 -172 -215 -195 -215 -20 0 -228 132 -219
139 133 109 194 182 233 281 57 144 -25 266 -123 181 -18 -16 -55 -71 -82
-123 -58 -108 -144 -202 -220 -238 -72 -35 -187 -34 -265 2 -144 67 -230 211
-230 388 0 68 26 196 54 268 44 112 181 292 209 276 7 -4 50 -35 97 -68z
m7775 -27 c193 -35 329 -203 381 -467 17 -89 18 -170 3 -262 l-12 -69 -111 6
c-61 3 -113 7 -115 9 -2 2 2 41 9 87 7 47 11 115 8 151 -14 169 -139 276 -206
177 -22 -34 -23 -41 -20 -226 l3 -191 -38 -77 c-29 -58 -48 -84 -80 -106 -131
-90 -330 -81 -445 20 -133 117 -232 341 -232 524 0 76 21 178 45 225 l16 30
119 0 119 0 -13 -37 c-46 -132 -45 -266 2 -367 35 -74 73 -102 123 -91 57 13
64 39 64 240 0 177 0 181 29 242 52 114 140 174 282 192 6 0 37 -4 69 -10z
m-7530 -2044 c20 -49 50 -123 67 -162 l30 -73 178 -2 178 -3 -125 -100 c-68
-55 -131 -105 -139 -111 -12 -10 -7 -36 37 -179 27 -92 49 -169 47 -170 -3 -3
-123 68 -284 166 l-30 18 -155 -93 c-85 -52 -156 -93 -157 -91 -2 2 15 68 39
147 23 79 44 154 46 168 4 23 -11 38 -133 135 l-138 110 180 3 181 2 48 123
c60 151 86 210 90 205 2 -2 20 -43 40 -93z m7424 -85 l59 -145 182 -3 182 -2
-139 -111 c-76 -61 -139 -112 -141 -114 -2 -2 20 -78 47 -171 28 -92 49 -169
48 -171 -2 -1 -74 40 -159 92 l-156 96 -154 -95 c-84 -52 -154 -90 -156 -86
-2 5 17 78 42 163 25 86 46 159 46 165 0 5 -64 59 -141 121 l-142 111 184 0
184 0 49 123 c85 211 87 215 97 192 5 -11 36 -85 68 -165z m-6299 -1422 c135
-31 286 -144 379 -283 46 -70 91 -168 91 -201 0 -9 -44 -36 -112 -69 l-111
-55 -18 50 c-36 103 -108 183 -206 227 -142 65 -328 -16 -400 -175 -33 -71
-37 -186 -9 -244 46 -96 191 -191 311 -203 36 -4 65 -9 65 -11 0 -2 -24 -50
-54 -106 -63 -121 -65 -122 -199 -89 -129 32 -219 83 -313 176 -122 121 -174
244 -174 416 0 305 190 533 484 580 59 9 201 2 266 -13z m5083 -109 c37 -42
67 -80 66 -85 0 -5 -81 -80 -179 -167 l-179 -158 57 -70 c31 -38 59 -69 63
-69 4 0 76 58 160 130 85 71 159 130 164 129 9 0 71 -71 136 -152 l19 -25
-157 -133 c-87 -72 -159 -135 -161 -139 -2 -5 83 -117 118 -154 5 -4 97 69
207 162 l198 171 24 -27 c157 -178 152 -169 114 -201 -285 -243 -667 -561
-673 -561 -3 0 -39 44 -80 97 -41 53 -196 252 -343 442 l-269 346 43 35 c85
69 386 330 489 424 57 53 107 92 110 88 4 -4 36 -41 73 -83z m-4263 -533 c41
-8 100 -24 131 -35 161 -61 316 -215 371 -369 29 -81 36 -254 14 -342 -78
-306 -363 -497 -671 -450 -248 37 -436 185 -522 408 -35 90 -43 247 -18 342
50 191 201 354 391 421 115 41 185 46 304 25z m3503 -98 l46 -103 -220 -107
-220 -107 14 -33 c48 -114 61 -139 71 -134 6 2 91 41 189 85 99 45 181 81 184
81 4 0 103 -206 103 -214 0 -2 -84 -41 -187 -86 -104 -46 -191 -86 -195 -89
-5 -5 64 -176 76 -188 1 -2 106 44 231 102 126 58 234 105 240 105 7 0 35 -52
63 -116 l51 -115 -42 -19 c-23 -10 -118 -53 -212 -95 -374 -169 -577 -256
-588 -252 -7 2 -18 22 -26 43 -8 22 -99 252 -202 513 -104 261 -188 475 -186
476 1 1 56 25 122 54 156 69 371 171 510 243 60 31 115 57 120 57 6 1 32 -45
58 -101z m-2522 -288 c85 -17 257 -48 382 -69 126 -22 230 -41 232 -43 2 -2
-3 -65 -12 -141 -15 -127 -18 -137 -37 -137 -12 1 -122 18 -246 39 -124 21
-226 38 -227 37 -2 -2 -14 -50 -26 -109 l-24 -106 26 -5 c14 -3 109 -20 211
-37 102 -17 187 -33 188 -34 5 -5 -28 -227 -36 -246 -6 -13 -33 -11 -227 21
-121 21 -222 36 -224 34 -1 -1 -22 -84 -46 -184 -23 -99 -44 -182 -46 -185 -5
-5 -348 81 -356 89 -3 3 57 255 133 561 132 527 140 556 160 551 11 -3 90 -19
175 -36z m1598 -146 c13 -74 20 -138 17 -142 -4 -3 -113 -20 -243 -39 -129
-18 -238 -35 -240 -37 -3 -3 -2 -48 2 -101 6 -82 10 -95 24 -91 28 8 412 59
415 55 3 -5 44 -263 42 -266 -1 -1 -102 -16 -226 -34 l-225 -32 14 -194 c7
-106 12 -195 10 -197 -7 -6 -360 -28 -365 -23 -7 7 -79 1125 -74 1131 3 2 109
16 235 31 127 14 300 37 385 49 232 35 203 49 229 -110z"/>
<path d="M10148 11793 c-2 -5 -2 -52 0 -105 l4 -98 118 0 c116 0 119 1 139 26
40 51 20 147 -35 170 -35 15 -220 20 -226 7z"/>
<path d="M10164 11339 c3 -17 6 -67 6 -110 l0 -79 109 0 c60 0 117 3 126 6 22
9 45 57 45 94 0 42 -24 96 -48 109 -12 6 -71 11 -133 11 l-111 0 6 -31z"/>
<path d="M8833 11517 c-57 -23 -103 -47 -103 -53 0 -10 87 -204 94 -212 2 -1
50 17 107 41 101 41 104 44 118 83 13 37 13 46 -3 88 -17 45 -51 77 -91 89
-12 4 -61 -11 -122 -36z"/>
<path d="M7601 10752 c26 -68 136 -311 141 -309 11 4 158 131 158 137 -1 5
-271 170 -293 179 -5 2 -8 -1 -6 -7z"/>
<path d="M10060 10390 c-340 -23 -657 -101 -928 -231 -228 -108 -400 -215
-581 -359 -465 -370 -814 -954 -941 -1574 -26 -127 -53 -344 -46 -372 7 -28
87 -62 163 -70 85 -9 164 15 338 101 176 87 240 107 326 103 77 -4 93 -21 66
-71 -42 -77 -59 -90 -130 -97 -55 -6 -94 -21 -229 -87 -216 -106 -251 -118
-368 -118 -52 0 -110 4 -128 8 l-33 9 7 -109 c3 -59 11 -113 16 -120 16 -20
97 -27 167 -14 42 8 119 37 211 80 164 78 233 101 301 101 l47 0 -5 -42 c-8
-61 -26 -110 -43 -119 -8 -4 -37 -11 -63 -14 -33 -5 -105 -35 -222 -95 -170
-88 -259 -120 -328 -120 l-35 0 15 -57 c37 -148 28 -133 84 -133 62 0 132 24
229 79 110 63 187 93 254 99 l59 5 -6 -39 c-4 -21 -7 -56 -7 -76 0 -35 -2 -38
-27 -38 -41 -1 -124 -38 -242 -108 -95 -56 -151 -80 -224 -96 -26 -6 -27 -9
-21 -49 4 -23 14 -61 24 -84 33 -75 82 -71 237 23 114 70 162 92 203 95 60 5
67 1 79 -45 6 -25 11 -59 11 -75 0 -26 -4 -31 -23 -31 -50 0 -121 -31 -220
-93 -56 -36 -115 -70 -130 -76 l-27 -11 20 -52 c23 -62 71 -111 98 -100 9 4
59 31 109 60 53 30 120 60 160 70 66 17 69 19 63 42 -4 14 -10 49 -13 78 l-6
52 68 0 c82 0 147 30 260 118 73 57 74 58 92 132 25 97 83 216 203 414 52 87
99 174 102 193 12 63 -4 236 -36 398 -40 203 -47 316 -26 414 30 140 129 306
208 347 15 8 28 12 28 10 0 -3 -14 -26 -32 -52 -130 -193 -141 -496 -28 -817
40 -115 47 -185 26 -265 -21 -82 -42 -122 -146 -277 -48 -72 -102 -159 -119
-193 -86 -171 -80 -319 21 -522 29 -58 53 -108 53 -112 0 -12 -246 -198 -310
-233 -35 -20 -87 -41 -117 -47 -81 -17 -106 -1 -142 90 l-28 72 -50 0 c-27 0
-65 -7 -86 -15 -57 -24 -182 -97 -182 -107 0 -13 102 -138 113 -138 5 0 45 18
89 40 107 53 153 54 197 5 33 -38 39 -66 18 -84 -8 -6 -46 -18 -86 -27 -42
-10 -84 -26 -99 -39 l-27 -23 73 -71 72 -70 66 30 c66 29 100 35 120 21 15
-10 64 -84 64 -97 0 -5 -23 -23 -50 -38 -28 -16 -50 -32 -50 -37 0 -13 120
-110 182 -147 77 -46 85 -48 93 -21 14 46 76 160 145 268 118 186 160 287 160
387 0 24 4 43 9 43 5 0 19 -26 31 -57 44 -117 17 -207 -127 -415 -84 -121
-119 -195 -129 -266 -6 -50 -6 -50 32 -76 22 -14 55 -32 75 -40 l35 -15 12 69
c16 93 44 152 142 300 120 180 154 256 158 352 6 127 -24 192 -197 413 -148
190 -188 281 -178 406 10 120 68 234 200 397 93 114 123 169 136 250 15 92 -3
184 -77 402 l-66 195 -1 130 c0 118 3 138 28 210 57 160 123 262 209 320 29
19 54 33 56 31 2 -2 -13 -26 -34 -53 -45 -58 -106 -186 -129 -268 -9 -33 -19
-114 -22 -180 -7 -149 4 -195 91 -395 85 -194 90 -211 91 -315 0 -111 -9 -132
-154 -335 -130 -183 -168 -258 -181 -369 -21 -162 15 -249 184 -446 144 -168
175 -233 176 -366 0 -135 -22 -196 -142 -382 -39 -60 -84 -139 -101 -175 -29
-61 -32 -76 -32 -166 l0 -100 90 -28 c50 -15 90 -28 90 -28 0 0 0 53 0 117 0
110 2 123 31 190 18 40 68 132 111 205 44 73 92 164 108 203 36 91 45 207 21
288 -26 89 -50 126 -199 307 -43 52 -95 129 -115 169 -35 71 -37 80 -37 175 0
98 1 104 41 186 23 47 82 140 132 207 117 159 127 186 126 333 0 127 -1 129
-104 371 -67 156 -90 249 -90 369 0 206 78 383 219 497 29 25 55 42 58 39 3
-2 -21 -40 -51 -84 -96 -137 -130 -238 -130 -387 0 -150 16 -201 190 -615 46
-109 49 -120 49 -205 0 -112 -15 -149 -136 -335 -119 -182 -151 -253 -157
-345 -8 -133 25 -209 167 -379 115 -137 147 -195 177 -316 32 -129 5 -236
-116 -460 -127 -233 -134 -254 -135 -395 0 -134 12 -173 63 -199 29 -15 152
-33 152 -23 0 4 -12 42 -26 84 -23 68 -26 89 -21 163 7 109 33 182 136 387
141 281 162 362 123 490 -24 78 -69 151 -174 285 -158 201 -183 248 -182 348
0 83 33 156 138 308 42 60 93 148 115 194 21 47 46 88 56 91 31 12 80 7 140
-15 77 -27 140 -26 250 6 49 14 104 26 121 26 33 0 64 -21 64 -43 0 -32 60
-132 142 -241 122 -161 143 -208 143 -312 0 -75 -3 -87 -42 -165 -25 -50 -86
-140 -152 -223 -61 -77 -125 -169 -143 -205 -31 -62 -33 -73 -33 -166 0 -82 4
-107 21 -140 147 -279 214 -420 233 -493 29 -108 30 -224 2 -312 -11 -35 -19
-65 -18 -66 1 -1 43 8 92 20 90 21 90 22 104 61 8 23 15 81 15 135 1 128 -30
222 -141 422 -118 213 -127 236 -127 338 0 134 44 225 218 448 54 70 109 150
123 179 68 147 30 281 -156 542 -48 68 -96 145 -105 171 -46 129 -26 237 88
477 117 247 130 291 130 453 1 196 -36 310 -144 454 -66 87 -35 73 65 -28 144
-146 207 -337 176 -535 -11 -72 -31 -136 -142 -456 -45 -129 -52 -161 -53
-230 -1 -71 3 -88 31 -145 17 -36 70 -117 117 -180 185 -248 212 -367 125
-550 -33 -70 -63 -114 -187 -270 -111 -141 -134 -191 -140 -302 -6 -126 21
-200 149 -408 121 -197 163 -330 143 -444 -6 -31 -8 -56 -5 -56 3 0 44 13 91
29 l85 29 3 68 c5 121 -17 178 -153 394 -102 162 -120 201 -130 280 -16 128
43 263 219 497 120 160 139 197 150 278 17 123 -38 259 -207 510 -55 82 -109
171 -119 198 -38 99 -21 194 71 399 77 173 95 260 88 422 -8 179 -61 340 -152
459 -40 52 -38 57 11 26 92 -56 196 -208 229 -335 41 -156 29 -287 -55 -584
-63 -222 -69 -254 -59 -328 12 -83 53 -165 156 -307 148 -206 191 -306 180
-429 -9 -113 -66 -222 -202 -386 -92 -111 -133 -178 -155 -249 -44 -140 -17
-233 131 -459 108 -162 159 -277 159 -354 l0 -28 51 19 c28 11 62 27 76 36 23
15 25 22 19 61 -8 64 -53 154 -146 294 -117 175 -135 217 -135 310 0 57 5 85
21 115 12 22 25 39 30 38 5 -2 12 -38 15 -80 10 -119 35 -176 160 -369 76
-118 149 -252 149 -273 0 -18 9 -14 109 54 101 68 151 109 151 122 0 5 -25 24
-55 42 -63 38 -64 48 -12 114 21 27 34 36 46 32 9 -4 47 -18 85 -31 66 -23 70
-23 90 -6 41 35 116 114 116 123 0 12 -105 64 -159 79 -42 11 -43 13 -37 43 3
17 16 42 29 55 19 20 29 23 72 20 28 -2 88 -21 135 -41 l85 -38 34 38 c35 40
71 93 71 106 0 10 -258 137 -279 137 -33 0 -58 -29 -76 -89 -26 -86 -39 -96
-112 -81 -113 24 -253 106 -407 242 l-39 34 38 75 c71 136 83 164 95 223 30
148 -13 271 -182 528 -141 214 -152 241 -151 353 1 77 7 112 46 240 72 236 80
309 52 469 -14 80 -72 252 -109 324 -18 36 -12 40 24 15 78 -52 129 -136 177
-290 25 -81 27 -101 27 -258 l0 -170 -42 -121 c-77 -222 -59 -307 124 -587
121 -184 164 -280 164 -362 0 -28 12 -42 93 -110 116 -98 177 -128 254 -123
l55 3 -6 -60 c-3 -33 -9 -72 -12 -86 -6 -25 -4 -26 46 -31 38 -4 88 -24 183
-72 l132 -66 27 32 c33 38 58 89 58 116 0 13 -11 24 -32 33 -18 7 -67 34 -109
60 -107 67 -171 98 -218 105 -46 7 -46 6 -29 86 13 65 22 69 103 47 38 -11 66
-24 250 -118 44 -22 90 -41 102 -41 28 0 56 40 81 114 l20 59 -77 27 c-42 14
-130 57 -196 93 -66 37 -150 77 -187 89 l-67 22 -7 52 c-8 66 1 94 30 94 48 0
136 -34 256 -100 227 -123 290 -127 333 -20 8 19 17 51 21 70 l6 36 -84 16
c-59 11 -110 29 -172 62 -216 112 -293 147 -354 160 l-65 13 -12 59 c-17 81
-17 82 15 89 52 11 168 -22 309 -89 177 -83 236 -100 325 -94 38 3 71 7 73 9
2 3 7 58 11 123 l7 119 -24 -7 c-13 -5 -64 -10 -114 -13 -108 -6 -147 5 -340
98 -158 75 -222 98 -299 106 l-59 6 -23 51 c-13 29 -25 63 -26 76 -3 23 2 26
50 34 39 7 69 5 120 -8 65 -16 101 -32 287 -129 121 -63 206 -84 281 -68 32 6
77 22 101 36 51 30 50 27 28 219 -76 647 -332 1165 -794 1609 -258 247 -620
479 -925 591 -335 123 -758 181 -1136 156z m387 -471 c32 -4 94 -8 138 -8 44
-1 97 -5 119 -9 l38 -7 -48 -44 c-27 -24 -89 -81 -137 -127 l-88 -83 29 -68
c16 -37 44 -104 62 -148 19 -44 35 -82 36 -84 2 -2 71 36 154 83 158 91 246
130 345 152 102 23 99 31 44 -128 -44 -130 -60 -208 -42 -208 4 0 50 18 102
39 126 52 291 87 291 62 0 -5 -23 -47 -51 -92 -94 -151 -155 -295 -174 -411
-3 -21 -9 -38 -14 -38 -4 0 -81 28 -172 61 -206 77 -296 104 -429 129 -410 78
-881 18 -1297 -164 l-100 -43 -27 96 c-31 113 -92 242 -169 361 -31 46 -53 88
-50 93 13 21 124 -3 263 -56 79 -31 146 -54 149 -52 12 13 -24 149 -63 237
-25 56 -43 105 -40 110 8 13 67 9 113 -7 65 -22 225 -105 337 -173 56 -34 106
-62 111 -62 10 0 133 289 133 312 0 7 -60 67 -132 133 l-132 120 89 6 c50 4
129 7 176 8 l86 1 36 78 c19 42 52 113 73 157 l37 80 73 -150 72 -150 59 -6z
m-2304 -793 c39 -16 140 -118 176 -178 41 -66 71 -142 89 -228 l17 -77 90 34
c171 65 253 85 355 87 95 1 186 -20 211 -50 6 -8 -20 -33 -84 -82 -105 -80
-282 -259 -352 -354 l-46 -63 -102 -1 c-143 -2 -190 -17 -507 -160 -76 -35
-93 -39 -165 -39 -79 0 -145 21 -145 46 0 5 40 69 88 142 221 330 290 474 318
661 10 69 13 129 8 188 -7 96 -6 98 49 74z m4282 -171 c1 -150 4 -178 24 -240
41 -123 106 -245 241 -449 72 -109 129 -204 126 -211 -7 -19 -93 -45 -148 -45
-64 0 -144 28 -287 99 -159 80 -202 92 -350 97 l-125 3 -64 88 c-108 148 -249
275 -430 388 -11 8 17 36 51 51 34 15 65 19 167 19 143 -1 207 -16 349 -85 46
-22 84 -39 85 -38 1 2 17 53 35 113 38 128 73 193 143 271 53 57 141 116 168
111 13 -2 15 -29 15 -172z m-1995 -55 c77 -12 168 -55 228 -106 50 -42 102
-127 102 -166 l0 -27 -92 6 c-110 7 -217 -9 -273 -40 -26 -15 -47 -38 -64 -72
-23 -43 -26 -62 -25 -140 1 -101 16 -148 51 -153 16 -2 29 7 50 39 l27 41 56
-8 c51 -8 128 -8 210 -2 31 3 37 -1 55 -34 18 -33 18 -43 8 -105 -17 -94 -57
-213 -106 -308 -53 -102 -156 -209 -247 -256 -59 -31 -73 -34 -150 -34 -111 0
-182 23 -260 82 -171 128 -280 342 -280 550 0 70 3 86 20 103 24 24 29 24 80
4 40 -16 68 -16 177 2 29 4 51 2 73 -9 38 -19 56 -14 75 24 18 34 19 61 3 162
-11 71 -15 81 -44 104 -51 38 -115 53 -236 53 l-108 0 0 28 c0 33 47 111 93
154 53 49 142 89 252 112 41 8 262 5 325 -4z m-470 -425 c46 -23 79 -59 66
-72 -3 -4 -39 1 -79 10 -81 18 -111 14 -145 -17 -18 -16 -27 -18 -40 -10 -26
16 -27 69 -3 93 32 32 135 29 201 -4z m769 -3 c31 -23 38 -54 16 -72 -13 -11
-25 -11 -69 3 -59 19 -157 22 -187 7 -15 -9 -21 -7 -26 6 -10 28 10 47 73 65
73 22 157 18 193 -9z"/>
<path d="M10108 9369 c-176 -134 -172 -138 142 -133 133 2 238 8 244 14 12 12
-11 39 -85 96 -54 41 -169 114 -179 114 -3 -1 -58 -41 -122 -91z"/>
<path d="M10162 8085 c-26 -11 -33 -20 -30 -37 3 -22 8 -23 94 -26 78 -2 94 0
115 17 23 19 23 21 6 38 -23 24 -139 29 -185 8z"/>
<path d="M10030 7887 c0 -15 105 -120 137 -136 29 -15 133 -13 159 2 46 27
134 118 134 139 0 5 -97 8 -215 8 -168 0 -215 -3 -215 -13z"/>
<path d="M8420 4730 c-71 -24 -159 -115 -204 -209 -39 -83 -48 -197 -21 -266
30 -80 128 -144 221 -145 137 0 283 150 316 327 10 53 8 68 -11 132 -27 89
-77 143 -154 166 -64 19 -80 19 -147 -5z"/>
<path d="M13352 3394 c-63 -17 -147 -68 -186 -115 -16 -19 -41 -59 -55 -89
-23 -48 -26 -68 -26 -155 0 -89 3 -106 28 -157 37 -75 128 -160 202 -187 39
-15 79 -21 135 -21 107 0 173 26 249 96 40 36 67 73 87 116 26 56 29 74 29
158 -1 84 -4 102 -30 155 -79 164 -258 247 -433 199z m247 -69 c241 -132 232
-464 -18 -587 -37 -18 -63 -23 -131 -23 -73 0 -93 4 -142 28 -188 92 -243 347
-107 501 76 86 149 118 264 113 66 -3 90 -8 134 -32z"/>
<path d="M13310 3036 l0 -206 25 0 c25 0 25 0 25 95 l0 95 49 0 48 0 58 -95
c51 -85 60 -95 86 -95 16 0 29 2 29 5 0 3 -27 46 -60 94 l-59 89 36 7 c20 3
49 19 65 35 38 38 40 105 4 147 -24 28 -25 28 -165 31 l-141 4 0 -206z m235
160 c39 -17 54 -54 36 -92 -15 -34 -49 -44 -142 -44 l-79 0 0 75 0 75 75 0
c43 0 90 -6 110 -14z"/>
</g>
</svg>
